<svg xmlns="http://www.w3.org/2000/svg" xmlns:xlink="http://www.w3.org/1999/xlink" width="500" zoomAndPan="magnify" viewBox="0 0 375 374.999991" height="500" preserveAspectRatio="xMidYMid meet" version="1.0"><path fill="#356f3a" d="M 322.949219 309.644531 C 284.503906 372.296875 237.40625 380.636719 192.730469 361.832031 C 192.988281 352.789062 193.691406 343.039062 195.019531 332.773438 C 203.746094 265.460938 289.546875 153.761719 290.570312 152.425781 C 289.53125 153.292969 202.644531 225.664062 173.28125 316.089844 C 169.554688 327.5625 167.0625 337.828125 165.5625 347.015625 C 119.027344 315.761719 97.007812 266.957031 139.777344 197.253906 C 184.347656 124.609375 332.992188 87.816406 332.992188 87.816406 C 332.992188 87.816406 367.519531 237 322.949219 309.644531 Z M 322.949219 309.644531 " fill-opacity="1" fill-rule="nonzero"/><path fill="#92c730" d="M 224.011719 112.691406 C 191.253906 128.195312 157.703125 148.808594 136.699219 174.476562 C 105.347656 125.441406 78.710938 72.90625 78.082031 71.378906 C 78.351562 72.992188 92.019531 131.421875 125.1875 191.292969 C 108.039062 220.734375 102.589844 246.359375 105.695312 268.445312 C 83.734375 260.835938 63.128906 242.644531 45.65625 210.128906 C 7.5 139.125 48.175781 0.140625 48.175781 0.140625 C 48.175781 0.140625 184.929688 42.425781 224.011719 112.691406 Z M 224.011719 112.691406 " fill-opacity="1" fill-rule="nonzero"/></svg>